<?xml version="1.0" standalone="no"?>
<!DOCTYPE svg PUBLIC "-//W3C//DTD SVG 20010904//EN"
 "http://www.w3.org/TR/2001/REC-SVG-20010904/DTD/svg10.dtd">
<svg version="1.0" xmlns="http://www.w3.org/2000/svg"
 width="200.000000pt" height="200.000000pt" viewBox="0 0 200.000000 200.000000"
 preserveAspectRatio="xMidYMid meet">

<g transform="translate(0.000000,200.000000) scale(0.100000,-0.100000)"
fill="#000000" stroke="none">
<path d="M95 1986 c-41 -18 -83 -69 -90 -109 -3 -18 -4 -422 -3 -899 3 -857 3
-867 24 -894 11 -15 33 -37 48 -48 27 -21 34 -21 921 -21 887 0 894 0 921 21
15 11 37 33 48 48 21 27 21 34 21 921 0 887 0 894 -21 921 -11 15 -33 37 -48
48 -27 21 -36 21 -909 23 -718 2 -888 0 -912 -11z m1796 -85 l29 -29 0 -867 0
-867 -29 -29 -29 -29 -867 0 -867 0 -29 29 -29 29 0 867 0 867 29 29 29 29
867 0 867 0 29 -29z"/>
<path d="M1325 1801 c-104 -28 -196 -105 -241 -204 l-29 -62 0 -585 c0 -555 1
-587 19 -623 21 -43 75 -83 122 -93 78 -15 128 18 279 189 51 56 66 67 92 67
39 0 63 -30 63 -77 0 -27 -10 -43 -50 -81 -55 -52 -62 -80 -30 -112 29 -29 62
-25 111 12 60 46 89 106 89 181 0 116 -66 195 -170 205 -79 7 -125 -22 -237
-150 -87 -99 -98 -109 -127 -106 -49 5 -56 30 -56 228 0 124 4 180 12 188 9 9
85 12 277 12 306 0 314 2 319 67 5 74 8 73 -303 73 -235 0 -276 2 -289 16 -13
12 -16 40 -16 135 l0 119 41 -29 c143 -104 347 -84 469 45 74 78 94 129 95
239 0 77 -4 98 -26 146 -60 127 -170 200 -307 205 -42 2 -90 -1 -107 -5z m196
-149 c74 -39 111 -93 117 -172 12 -159 -118 -272 -274 -240 -129 27 -204 144
-174 272 10 39 24 63 59 98 76 76 177 92 272 42z"/>
<path d="M485 1783 c-54 -14 -71 -67 -35 -103 18 -18 33 -20 185 -20 l165 0 0
-120 0 -120 -239 0 c-132 0 -251 -4 -265 -10 -38 -14 -54 -55 -35 -88 l15 -27
269 -5 270 -5 -270 -104 c-148 -57 -276 -108 -283 -114 -8 -7 -12 -29 -10 -66
l3 -55 220 -88 c197 -78 224 -92 258 -129 123 -137 59 -353 -113 -380 -103
-16 -198 26 -247 108 -22 38 -27 59 -27 113 0 57 5 74 37 132 31 56 36 71 27
92 -10 28 -45 47 -70 38 -54 -18 -110 -130 -118 -232 -16 -222 160 -403 375
-387 133 10 237 80 291 196 23 49 27 69 27 156 0 89 -3 106 -28 156 -15 31
-45 77 -67 102 l-41 46 3 133 c3 148 -5 132 93 175 l40 18 3 276 c2 270 2 276
-19 295 -19 17 -39 19 -208 21 -102 1 -195 -1 -206 -4z m170 -773 c0 -79 -7
-82 -106 -45 -58 23 -70 31 -67 48 2 15 19 26 68 43 99 35 105 32 105 -46z"/>
<path d="M265 1756 c-42 -64 41 -130 95 -76 41 41 13 100 -48 100 -22 0 -36
-7 -47 -24z"/>
</g>
</svg>
